<svg xmlns="http://www.w3.org/2000/svg" xmlns:xlink="http://www.w3.org/1999/xlink" width="80" height="18" viewBox="0 0 80 18"><defs><path id="a" d="M-600-2608H840V392H-600z"/></defs><clipPath id="b"><use xlink:href="#a" overflow="visible"/></clipPath><g opacity=".2" clip-path="url(#b)"><defs><path id="c" d="M0 0h80v18H0z"/></defs><clipPath id="d"><use xlink:href="#c" overflow="visible"/></clipPath><g clip-path="url(#d)"><defs><path id="e" d="M63.778 8.69c-1.134 0-1.529.62-1.529 1.391v2.816c0 .774.395 1.395 1.53 1.395 1.133 0 1.534-.621 1.534-1.395v-2.816c0-.77-.4-1.39-1.535-1.39zm15.864 8.234h-3.623l-3.064-5.107v5.107h-3.343V1.6l3.343-.557v9.864l3.064-4.85h3.623l-3.345 5.294 3.345 5.572zm-10.987-4.349c0 2.27-.94 4.472-4.865 4.472-3.929 0-4.886-2.202-4.886-4.472v-2.192c0-2.271.957-4.473 4.886-4.473 3.926 0 4.865 2.202 4.865 4.473v2.192zm-10.704 0c0 2.27-.938 4.472-4.865 4.472-3.93 0-4.886-2.202-4.886-4.472v-2.192c0-2.271.956-4.473 4.886-4.473 3.927 0 4.865 2.202 4.865 4.473v2.192zm-10.712-.058c0 2.632-.754 4.551-5.316 4.551-1.647 0-2.614-.144-4.433-.424V1.6l3.342-.557v5.262c.723-.268 1.657-.404 2.508-.404 3.343 0 3.9 1.497 3.9 3.901v2.714zm-10.866-.051h-6.13v.224c0 1.27.453 1.602 1.95 1.602 1.348 0 2.17-.065 3.9-.363v2.715c-1.669.34-2.538.43-4.176.43-3.59 0-5.017-1.885-5.017-4.608v-2.23c0-2.382 1.06-4.334 4.737-4.334s4.736 1.93 4.736 4.333v2.23zM25.91 9.048c-1.734-.297-2.23-.362-3.065-.362-1.499 0-1.951.33-1.951 1.6v2.404c0 1.27.452 1.602 1.95 1.602.835 0 1.332-.065 3.066-.363v2.715c-1.518.34-2.507.43-3.344.43-3.589 0-5.015-1.885-5.015-4.608v-1.95c0-2.726 1.426-4.614 5.015-4.614.837 0 1.826.09 3.344.431v2.715zm-9.474 7.896h-2.785l-.12-.703a6.4 6.4 0 0 1-3.157.818c-2.043 0-3.131-1.364-3.131-3.248 0-2.224 1.27-3.018 3.54-3.018h2.31v-.48c0-1.136-.13-1.469-1.879-1.469H8.357l.28-2.785h3.124c3.836 0 4.676 1.21 4.676 4.276v6.61zm-11.424-.02H1.67v-8.08H0V6.06h1.67V4.388c0-2.272.944-3.623 3.623-3.623h2.23V3.55H6.13c-1.044 0-1.113.389-1.113 1.115l-.004 1.394H7.54l-.296 2.785h-2.23v8.08zM53.074 8.69c-1.137 0-1.53.62-1.53 1.39v2.816c0 .774.394 1.395 1.53 1.395 1.134 0 1.531-.621 1.531-1.395V10.08c0-.77-.397-1.39-1.53-1.39zm-42.488 5.076c0 .61.288.925.924.925.682 0 1.086-.221 1.584-.45v-1.22h-1.492c-.706 0-1.016.131-1.016.745zM31.637 8.41c-1.136 0-1.394.622-1.394 1.393v.432h2.787v-.432c0-.77-.259-1.393-1.393-1.393zm10.867.28c-.683 0-1.174.224-1.672.451v5.146c.478.047.75.047 1.204.047 1.637 0 1.86-.749 1.86-1.794v-2.459c0-.77-.255-1.39-1.392-1.39z"/></defs><clipPath id="f"><use xlink:href="#e" overflow="visible"/></clipPath><g clip-path="url(#f)"><defs><path id="g" d="M0 0h80v18H0z"/></defs><clipPath id="h"><use xlink:href="#g" overflow="visible"/></clipPath><path clip-path="url(#h)" d="M-5-4.235h89.642v26.31H-5z"/></g></g></g></svg>