<svg xmlns="http://www.w3.org/2000/svg" xmlns:xlink="http://www.w3.org/1999/xlink" width="80" height="28" viewBox="0 0 80 28"><defs><path id="a" d="M-440-2603h1440V397H-440z"/></defs><clipPath id="b"><use xlink:href="#a" overflow="visible"/></clipPath><g opacity=".2" clip-path="url(#b)"><defs><path id="c" d="M0 0h80v28H0z"/></defs><clipPath id="d"><use xlink:href="#c" overflow="visible"/></clipPath><g clip-path="url(#d)"><defs><path id="e" d="M16.606 4.875l1.955-2.001C15.244.117 9.554-.246 5.785 1.669 2.505 3.333.122 6.639.005 10.332c-.123 3.887 2.126 6.961 4.41 8.507 3.767 2.55 10.3 1.983 14.235-.012v-4.443l.916-1.077h-5.733l-2.123 1.2 4.123-.123v3.59c0 .51.007.591-.83.862-1.175.31-2.503.372-3.717.27-4.118-.345-7.256-3.612-8-7.687-.705-3.866 1.11-7.523 4.18-9.032 1.5-.737 3.298-1.084 5.248-.457 1.222.393 2.332 1.1 3.3 2.076l-.675 1.23 1.267-.361zm14.911 8.454c.25 2.462-.583 4.75-2.81 5.26-2.277.523-4.692-1.352-5.295-4.539-.662-3.495.432-5.797 2.582-6.363 2.548-.67 5.143 1.882 5.523 5.642zM27.41 6.67c4.347 0 6.615 2.869 6.818 6.228.202 3.348-2.58 6.343-5.984 6.702-4.093.43-7.667-2.368-7.667-6.449 0-3.57 3.07-6.48 6.833-6.48zm18.786 6.66c.247 2.461-.576 4.748-2.776 5.26-2.252.522-4.638-1.353-5.234-4.54-.654-3.495.427-5.797 2.551-6.363 2.518-.67 5.084 1.882 5.46 5.642zm-4.06-6.66c4.297 0 6.538 2.869 6.739 6.228.2 3.348-2.55 6.343-5.914 6.702-4.045.43-7.578-2.368-7.578-6.449 0-3.57 3.034-6.48 6.754-6.48zm16.335 5.136c.285 1.738-.156 3.385-1.719 3.82-1.602.444-3.372-.806-3.942-3.046-.624-2.456.021-4.016 1.53-4.486 1.786-.558 3.695 1.06 4.13 3.712zM62.5 7.033l-1.6 1.041h-1.823c.77.54 1.36 1.318 1.685 2.184.345.924.394 1.947.043 2.888-.332.889-1.005 1.654-1.994 2.235-.562.33-.846.749-.877 1.151-.091 1.173 1.336 2.026 2.16 2.646 1.805 1.356 2.51 3.584 1.316 5.734-1.141 2.054-3.86 2.97-6.746 2.98-3.585-.015-5.847-1.665-5.966-3.91-.154-2.903 2.812-4.284 5.49-4.6.75-.087 1.421-.073 2.051-.028-.948-.626-1.302-1.904-.818-2.757.126-.223.046-.146-.193-.11-2.192.332-4.449-1.103-4.977-3.275a4.89 4.89 0 0 1 .316-3.153c.908-1.957 2.925-3.045 5.164-3.045 2.33 0 4.486.001 6.769.02zm-5.374 13.069c.27.198.55.391.839.574 1.573 1 2.074 2.223 1.946 3.351-.154 1.362-1.454 2.434-3.68 2.57-2.378.145-5.579-.8-4.986-3.94.316-1.673 2.527-2.537 4.354-2.597.506-.017 1.021.025 1.527.042zM63.893.108h3.744c-.522.339-.697.479-.92.835-.161.255-.202.74-.232 1.176-.217 5.02-.084 10.078-.116 15.099.02 1.368.556 1.207 2.328 1.155-.267.228-.7.677-1.036.87-1.599 0-3.125-.035-4.724-.035.603-.624.912-1.026.87-2.588.032-5.246-.174-10.281.144-15.333-.75.022-1.43.01-2.18.032.708-.366 1.377-.882 2.122-1.211zm15.439 10.321c.418-.174.451-.205.297-.648-.885-2.535-4.215-3.905-7.05-2.717-2.237.937-3.857 3.312-3.857 5.968 0 3.58 2.573 6.762 6.068 6.762 1.603 0 2.741-.223 3.756-.868.217-.203 1.442-1.188 1.454-1.399.002-.048-.173.105-.44.252-.789.417-1.973.577-2.9.595-1.88.034-3.38-1.251-4.358-2.777a7.245 7.245 0 0 1-1.139-3.31c-.155-1.854.296-3.986 2.38-4.51 1.388-.347 2.701.433 3.212 1.775.231.608.092.925-.469 1.157l-5.015 2.104 1.71.11c2.037-.849 4.315-1.645 6.351-2.494z"/></defs><clipPath id="f"><use xlink:href="#e" overflow="visible"/></clipPath><g clip-path="url(#f)"><defs><path id="g" d="M0 0h80v28H0z"/></defs><clipPath id="h"><use xlink:href="#g" overflow="visible"/></clipPath><path clip-path="url(#h)" d="M-5-4.892h90v37.785H-5z"/></g></g></g></svg>