<svg xmlns="http://www.w3.org/2000/svg" xmlns:xlink="http://www.w3.org/1999/xlink" width="70" height="26" viewBox="0 0 70 26"><defs><path id="a" d="M-1079.956-2604h1440V396h-1440z"/></defs><clipPath id="b"><use xlink:href="#a" overflow="visible"/></clipPath><g opacity=".2" clip-path="url(#b)"><defs><path id="c" d="M5.044 0h70v26h-70z"/></defs><clipPath id="d"><use xlink:href="#c" overflow="visible"/></clipPath><g clip-path="url(#d)"><defs><path id="e" d="M13.943 1.36c-4.52 5.387-8.855 12.066-8.899 17.058-.016 1.879.575 3.52 1.992 4.762 2.041 1.787 4.29 2.42 6.527 2.422 3.269.005 6.515-1.332 9.057-2.366C26.901 21.5 74.224.651 74.224.651c.456-.232.37-.521-.2-.376-.231.058-51.518 14.16-51.518 14.16-.99.282-2.001.426-2.985.432-3.942.024-7.45-2.195-7.42-6.873.01-1.83.563-4.037 1.842-6.633"/></defs><clipPath id="f"><use xlink:href="#e" overflow="visible"/></clipPath><g clip-path="url(#f)"><defs><path id="g" d="M5.044 0h70v26h-70z"/></defs><clipPath id="h"><use xlink:href="#g" overflow="visible"/></clipPath><path clip-path="url(#h)" d="M.044-4.764h79.472v35.366H.044z"/></g></g></g></svg>