<svg xmlns="http://www.w3.org/2000/svg" xmlns:xlink="http://www.w3.org/1999/xlink" width="80" height="24" viewBox="0 0 80 24"><defs><path id="a" d="M-920-2605H520V395H-920z"/></defs><clipPath id="b"><use xlink:href="#a" overflow="visible"/></clipPath><g opacity=".2" clip-path="url(#b)"><defs><path id="c" d="M0 0h80v24H0z"/></defs><clipPath id="d"><use xlink:href="#c" overflow="visible"/></clipPath><g clip-path="url(#d)"><defs><path id="e" d="M10.02 15.465L8.305 10.53l4.941-1.713 1.715 4.934-4.941 1.714zm13.143-2.582a1.869 1.869 0 0 0-2.378-1.15l-2.294.794-1.715-4.934 2.294-.795a1.865 1.865 0 1 0-1.226-3.525l-2.294.795-.796-2.29A1.869 1.869 0 0 0 11.224 3l.797 2.291L7.08 7.005l-.797-2.29a1.868 1.868 0 0 0-3.53 1.223l.797 2.291-2.294.795a1.865 1.865 0 0 0-1.152 2.374 1.869 1.869 0 0 0 2.377 1.151l2.294-.795 1.716 4.934-2.294.795a1.864 1.864 0 0 0-1.152 2.374 1.869 1.869 0 0 0 2.377 1.152l2.294-.796.797 2.29a1.868 1.868 0 0 0 3.529-1.223l-.796-2.29 4.941-1.714.796 2.29a1.869 1.869 0 0 0 2.378 1.152 1.866 1.866 0 0 0 1.152-2.375l-.796-2.29 2.294-.796a1.865 1.865 0 0 0 1.152-2.374zm16.612 5.895c.191.007 1.643.005 2.287.004a.317.317 0 0 0 .335-.303c.137-2.753.079-15.858-.007-17.927-.007-.18-.084-.246-.206-.262-.553-.075-2.121-.057-2.624.074-.1.026-.156.1-.16.197-.123 5.333-.04 17.63-.014 17.864.026.232.148.346.389.353zm37.002.013c.203-.015 2.38-.314 3.047-.468.166-.037.225-.177.132-.314-.373-.559-1.353-2.145-2.38-3.565-.944-1.304-1.94-2.453-2.263-2.894-.078-.108-.073-.214.012-.297.612-.598 3.175-3.106 4.138-4.142.373-.403.15-.576-.168-.67a33.008 33.008 0 0 0-2.164-.528c-.237-.05-.523-.033-.73.18-.964.897-3.903 3.843-4.78 4.723-.158.16-.25.124-.25-.103-.008-1.698-.042-8.966-.102-10.162-.005-.158-.195-.278-.302-.283a34.014 34.014 0 0 0-2.495-.005c-.154.017-.301.174-.315.306-.126 1.911.054 15.945.13 17.909a.265.265 0 0 0 .245.26c.55.03 1.904.029 2.536.017.312 0 .35-.219.35-.219l.047-3.765s.032-.167.084-.223c.223-.24.84-.9 1.103-1.155.064-.062.163-.058.228.029.312.42 1.204 1.79 2.03 3.014.76 1.123 1.469 2.12 1.518 2.19a.365.365 0 0 0 .35.165zm-20.734-6.404c-.02-3.531 2.443-6.51 6.444-6.536 2.496-.017 4.31 1.113 4.63 1.647.066.125.031.23-.013.355-.211.445-.746 1.307-1.126 1.794-.162.208-.338.03-.542-.106-.568-.377-1.645-.838-2.706-.838-1.923 0-3.357 1.318-3.34 3.741.014 2.327 1.387 3.605 3.347 3.652 1.025.025 2.018-.563 2.551-1.045.169-.146.342-.072.533.076.377.385.916.977 1.215 1.385.196.227.05.449-.02.538-.812 1.025-2.38 1.888-4.453 1.9-4.344.03-6.5-3.02-6.52-6.563zM44.475 7.674c.82-.734 2.448-1.875 5.042-1.815 3.421.071 5.23 1.673 5.398 5.506.07 1.581-.046 5.99-.073 7.088-.004.158-.057.267-.27.272-.563.022-1.866.013-2.465.005-.3-.014-.336-.165-.34-.32l-.018-.654c-.003-.132-.126-.128-.158-.094-.803.856-2.118 1.269-3.516 1.269-2.125 0-4.243-1.248-4.237-3.721.007-2.531 1.805-3.78 3.78-4.075 1.264-.188 2.69-.02 3.769.408.07.027.21-.013.21-.11.006-.323-.01-.938-.073-1.23-.158-.742-.778-1.34-2.082-1.5a4.032 4.032 0 0 0-.808-.023c-1.036.082-2.282.888-2.799 1.19-.121.07-.312.02-.373-.06-.3-.388-1.059-1.525-1.117-1.707-.06-.182.024-.334.13-.43zm5.84 5.52c-1.755.022-3.365.5-3.412 1.87 0 1.087.883 1.62 2.122 1.551 1.189-.114 2.096-.629 2.496-1.311.147-.254.17-1.201.16-1.607-.001-.086-.172-.249-.247-.28-.373-.157-.649-.205-1.12-.224zm-22.61-3.432c0-2.41 1.758-4.093 4.956-4.093 1.95 0 3.547.623 4.411 1.232a.562.562 0 0 1 .212.69c-.17.423-.48 1.06-.704 1.472-.13.24-.461.21-.632.123-.616-.311-1.626-.84-2.554-.936a5.437 5.437 0 0 0-.707-.03c-.818.018-1.501.301-1.742.924a1.09 1.09 0 0 0-.077.37c-.023.82 1.12 1.117 2.507 1.355 2.576.441 4.524 1.195 4.524 3.843 0 2.248-1.79 4.28-5.295 4.218-2.311-.047-3.951-.826-4.83-1.583-.03-.026-.364-.367-.185-.776.205-.526.552-1.13.824-1.45.15-.206.549-.24.756-.11.725.449 1.917 1.17 3.291 1.218.108.003.216.004.321.001 1.236-.03 1.984-.498 1.968-1.286-.013-.695-.993-1.1-2.554-1.394-2.488-.469-4.49-1.288-4.49-3.788z"/></defs><clipPath id="f"><use xlink:href="#e" overflow="visible"/></clipPath><g clip-path="url(#f)"><defs><path id="g" d="M0 0h80v24H0z"/></defs><clipPath id="h"><use xlink:href="#g" overflow="visible"/></clipPath><path clip-path="url(#h)" d="M-5-4.758h90v33.516H-5z"/></g></g></g></svg>