<svg xmlns="http://www.w3.org/2000/svg" xmlns:xlink="http://www.w3.org/1999/xlink" width="80" height="24" viewBox="0 0 80 24"><defs><path id="a" d="M-760-2605H680V395H-760z"/></defs><clipPath id="b"><use xlink:href="#a" overflow="visible"/></clipPath><g opacity=".2" clip-path="url(#b)"><defs><path id="c" d="M0 0h80v24H0z"/></defs><clipPath id="d"><use xlink:href="#c" overflow="visible"/></clipPath><g clip-path="url(#d)"><defs><path id="e" d="M42.977 16.082c-1.25 0-2.262-1.13-2.262-2.523 0-1.393 1.013-2.523 2.262-2.523 1.25 0 2.262 1.13 2.262 2.523 0 1.393-1.012 2.523-2.262 2.523zm.618-6.971c-1.41 0-2.27.504-2.856 1.3V9.27h-2.19v11.08h2.233v-3.62c.57.685 1.36 1.274 2.642 1.274 2.009 0 4.03-1.56 4.03-4.41v-.031c0-2.85-1.937-4.452-3.86-4.452zm9.049 7.029c-1.323 0-2.395-1.142-2.395-2.55 0-1.407 1.072-2.548 2.395-2.548s2.394 1.14 2.394 2.549c0 1.407-1.072 2.549-2.394 2.549zm.037-7.031c-2.616 0-4.599 2-4.599 4.463v.032c0 2.464 1.968 4.432 4.567 4.432 2.616 0 4.557-2 4.557-4.464v-.031c0-2.464-1.926-4.432-4.525-4.432zM66.2 6.89c0 .754-.616 1.365-1.376 1.365s-1.375-.611-1.375-1.365.615-1.366 1.375-1.366S66.2 6.135 66.2 6.89zm3.862 2.406v-.422c0-.642.496-.93 1.064-.93.422 0 .763.08 1.12.208V6.216c-.455-.145-.975-.24-1.753-.24-.877 0-1.454.224-1.908.673-.455.45-.736 1.14-.736 2.086v.546h-1.073v1.92H67.8v6.602h2.284v-6.6h1.78l2.677 6.509c-.225.522-.6.784-1.01.784-.315 0-.822-.18-1.137-.371l-.803 1.691c.615.366 1.473.585 2.342.585 1.536 0 2.27-1.306 2.53-1.977L80 9.315l-2.282-.002-2.065 5.81-2.264-5.829h-1.162l-2.164.003zm-6.334.015h2.194v8.533h-2.194V9.313zm-5.319 6.082v-4.18h-1.068V9.248h1.068v-2.25h2.223v2.25h2.233v1.968h-2.233v3.86c0 .71.445.874.99.874.448 0 .858-.148 1.211-.342v1.882c-.513.306-1.106.5-1.924.5-1.49 0-2.5-.597-2.5-2.595zm-29.446.804l1.453-1.758c1.006.84 2.06 1.372 3.337 1.372 1.006 0 1.612-.404 1.612-1.065v-.032c0-.63-.383-.951-2.25-1.436-2.252-.58-3.705-1.209-3.705-3.45v-.032c0-2.048 1.629-3.403 3.912-3.403 1.628 0 3.017.516 4.15 1.436L36.197 9.7c-.99-.694-1.963-1.113-2.905-1.113-.942 0-1.437.435-1.437.984v.032c0 .742.479.984 2.41 1.483 2.268.597 3.545 1.42 3.545 3.387v.032c0 2.242-1.692 3.499-4.103 3.499-1.692 0-3.4-.597-4.742-1.806zm-10.34-5.6a13.032 13.032 0 0 0-1.56-.755c-1.07-.426-2.178-.712-3.31-.91a20.966 20.966 0 0 0-2.382-.278 22.35 22.35 0 0 0-2.493-.012c-.953.048-1.899.152-2.832.353-.344.073-.684.167-1.025.257a1.138 1.138 0 0 1-.622.002 1.081 1.081 0 0 1-.782-1.012c-.014-.46.273-.889.722-1.036.33-.107.667-.192 1.006-.27a19.09 19.09 0 0 1 2.54-.388 22.933 22.933 0 0 1 2.729-.083c2.243.063 4.443.39 6.571 1.119.868.297 1.703.667 2.497 1.127.283.164.473.395.546.715.017.075.021.155.03.232a1.086 1.086 0 0 1-1.635.939zm-.139 3.288c-.258.422-.796.553-1.243.302-.252-.14-.501-.288-.76-.418-1.18-.598-2.433-.986-3.733-1.23a16.916 16.916 0 0 0-3.085-.285c-1.337.006-2.706.17-4.044.565a.968.968 0 0 1-.65-.018.896.896 0 0 1-.562-.851.876.876 0 0 1 .618-.827c.377-.114.76-.214 1.145-.298.948-.21 1.908-.32 2.879-.357 2.088-.078 4.128.19 6.117.823a13.9 13.9 0 0 1 2.878 1.277l.136.08c.474.289.53.868.304 1.237zm-1.432 3.163a.723.723 0 0 1-.908.284c-.068-.03-.13-.068-.194-.106a11.083 11.083 0 0 0-3.996-1.397 13.852 13.852 0 0 0-2.63-.144 19.03 19.03 0 0 0-3.376.446 1.7 1.7 0 0 1-.342.048.696.696 0 0 1-.696-.568.708.708 0 0 1 .432-.803 1.55 1.55 0 0 1 .212-.061c.91-.202 1.829-.356 2.758-.434.519-.043 1.04-.061 1.56-.09 1.54.016 3.045.223 4.506.713.806.27 1.576.619 2.307 1.051.063.037.127.074.186.118a.714.714 0 0 1 .181.943zM11.706.376C5.24.376 0 5.58 0 12s5.24 11.624 11.706 11.624S23.41 18.42 23.41 12 18.171.376 11.706.376z"/></defs><clipPath id="f"><use xlink:href="#e" overflow="visible"/></clipPath><g clip-path="url(#f)"><defs><path id="g" d="M0 0h80v24H0z"/></defs><clipPath id="h"><use xlink:href="#g" overflow="visible"/></clipPath><path clip-path="url(#h)" d="M-5-4.624h90v33.248H-5z"/></g></g></g></svg>