<?xml version="1.0" encoding="utf-8"?>
<!-- Generator: Adobe Illustrator 16.0.0, SVG Export Plug-In . SVG Version: 6.00 Build 0)  -->
<!DOCTYPE svg PUBLIC "-//W3C//DTD SVG 1.1//EN" "http://www.w3.org/Graphics/SVG/1.1/DTD/svg11.dtd">
<svg version="1.1" id="Слой_1" xmlns="http://www.w3.org/2000/svg" xmlns:xlink="http://www.w3.org/1999/xlink" x="0px" y="0px"
	 width="80px" height="18px" viewBox="0 0 80 18" enable-background="new 0 0 80 18" xml:space="preserve">
<g>
	<defs>
		<rect id="SVGID_1_" x="-600" y="-2608" width="1440" height="3000"/>
	</defs>
	<clipPath id="SVGID_2_">
		<use xlink:href="#SVGID_1_"  overflow="visible"/>
	</clipPath>
	<g opacity="0.2" clip-path="url(#SVGID_2_)" enable-background="new    ">
		<g>
			<defs>
				<rect id="SVGID_3_" width="80" height="18"/>
			</defs>
			<clipPath id="SVGID_4_">
				<use xlink:href="#SVGID_3_"  overflow="visible"/>
			</clipPath>
			<g clip-path="url(#SVGID_4_)">
				<defs>
					<path id="SVGID_5_" d="M63.7783203,8.690918c-1.1347656,0-1.5292969,0.6196289-1.5292969,1.3901367v2.8164063
						c0,0.7734375,0.3945313,1.3945313,1.5292969,1.3945313c1.1337891,0,1.5351563-0.6210938,1.5351563-1.3945313v-2.8164063
						C65.3134766,9.3105469,64.9121094,8.690918,63.7783203,8.690918z M79.6416016,16.9238281h-3.6230469l-3.0634766-5.1064453
						v5.1064453h-3.3427734V1.6010742l3.3427734-0.5566406v9.8637695l3.0634766-4.8496094h3.6230469l-3.3447266,5.2929688
						L79.6416016,16.9238281z M68.6552734,12.5751953c0,2.2695313-0.9394531,4.4716797-4.8652344,4.4716797
						c-3.9287109,0-4.8857422-2.2021484-4.8857422-4.4716797v-2.1923828c0-2.2709961,0.9570313-4.4731445,4.8857422-4.4731445
						c3.9257813,0,4.8652344,2.2021484,4.8652344,4.4731445V12.5751953z M57.9511719,12.5751953
						c0,2.2695313-0.9384766,4.4716797-4.8652344,4.4716797c-3.9296875,0-4.8857422-2.2021484-4.8857422-4.4716797v-2.1923828
						c0-2.2709961,0.9560547-4.4731445,4.8857422-4.4731445c3.9267578,0,4.8652344,2.2021484,4.8652344,4.4731445V12.5751953z
						 M47.2392578,12.5166016c0,2.6328125-0.7539063,4.5517578-5.3164063,4.5517578
						c-1.6464844,0-2.6137695-0.1445313-4.4326172-0.4248047V1.6010742l3.3417969-0.5566406v5.2617188
						c0.7226563-0.2680664,1.6572266-0.4038086,2.5078125-0.4038086c3.3427734,0,3.8994141,1.496582,3.8994141,3.9008789V12.5166016
						z M36.3725586,12.4658203h-6.1298828v0.2246094c0,1.2705078,0.453125,1.6015625,1.9511719,1.6015625
						c1.347168,0,2.168457-0.0654297,3.8989258-0.3632813v2.7148438c-1.668457,0.3408203-2.5375977,0.4306641-4.1762695,0.4306641
						c-3.5893555,0-5.0161133-1.8847656-5.0161133-4.6083984v-2.2304688c0-2.3813477,1.059082-4.3330078,4.7368164-4.3330078
						s4.7353516,1.9287109,4.7353516,4.3330078V12.4658203z M25.9111328,9.0478516
						c-1.7338867-0.2963867-2.230957-0.3623047-3.0654297-0.3623047c-1.4985352,0-1.9506836,0.3310547-1.9506836,1.6005859
						v2.4042969c0,1.2705078,0.4521484,1.6015625,1.9506836,1.6015625c0.8344727,0,1.331543-0.0654297,3.0654297-0.3632813
						v2.7148438c-1.5185547,0.3408203-2.5073242,0.4306641-3.34375,0.4306641c-3.5893555,0-5.0151367-1.8847656-5.0151367-4.6083984
						V10.515625c0-2.7255859,1.4257813-4.6132813,5.0151367-4.6132813c0.8364258,0,1.8251953,0.0898438,3.34375,0.4306641V9.0478516
						z M16.4375,16.9443359h-2.7856445l-0.1206055-0.703125c-1.2724609,0.703125-2.4077148,0.8173828-3.15625,0.8173828
						c-2.043457,0-3.1313477-1.3632813-3.1313477-3.2480469c0-2.2236328,1.2695313-3.0175781,3.5395508-3.0175781H13.09375V10.3125
						c0-1.1357422-0.1303711-1.4682617-1.878418-1.4682617H8.3569336l0.2797852-2.7856445h3.1240234
						c3.8359375,0,4.6767578,1.2109375,4.6767578,4.2763672V16.9443359z M5.0131836,16.9238281H1.6704102V8.8442383H0V6.0585938
						h1.6704102V4.3876953c0-2.2714844,0.9433594-3.6230469,3.6225586-3.6230469h2.2304688v2.7851563H6.1298828
						c-1.043457,0-1.112793,0.3891602-1.112793,1.1152344L5.0131836,6.0585938h2.5263672L7.2436523,8.8442383H5.0131836V16.9238281z
						 M53.0742188,8.690918c-1.1367188,0-1.5302734,0.6196289-1.5302734,1.3901367v2.8164063
						c0,0.7734375,0.3935547,1.3945313,1.5302734,1.3945313c1.1337891,0,1.53125-0.6210938,1.53125-1.3945313v-2.8164063
						C54.6054688,9.3105469,54.2080078,8.690918,53.0742188,8.690918z M10.5864258,13.7666016
						c0,0.6103516,0.2875977,0.9257813,0.9233398,0.9257813c0.6826172,0,1.0859375-0.2216797,1.5839844-0.4501953v-1.2197266
						h-1.4916992C10.8959961,13.0224609,10.5864258,13.1533203,10.5864258,13.7666016z M31.637207,8.4101563
						c-1.1357422,0-1.3945313,0.6220703-1.3945313,1.3930664v0.4321289h2.7871094V9.8032227
						C33.0297852,9.0322266,32.7709961,8.4101563,31.637207,8.4101563z M42.5039063,8.690918
						c-0.6826172,0-1.1738281,0.2231445-1.671875,0.4501953v5.1459961c0.4775391,0.046875,0.75,0.046875,1.2041016,0.046875
						c1.6367188,0,1.8603516-0.7490234,1.8603516-1.7939453v-2.4589844
						C43.8964844,9.3105469,43.640625,8.690918,42.5039063,8.690918z"/>
				</defs>
				<clipPath id="SVGID_6_">
					<use xlink:href="#SVGID_5_"  overflow="visible"/>
				</clipPath>
				<g clip-path="url(#SVGID_6_)">
					<defs>
						<rect id="SVGID_7_" width="80" height="18"/>
					</defs>
					<clipPath id="SVGID_8_">
						<use xlink:href="#SVGID_7_"  overflow="visible"/>
					</clipPath>
					<rect x="-5" y="-4.2353516" clip-path="url(#SVGID_8_)" width="89.6416016" height="26.3095703"/>
				</g>
			</g>
		</g>
	</g>
</g>
</svg>
