<?xml version="1.0" encoding="utf-8"?>
<!-- Generator: Adobe Illustrator 16.0.0, SVG Export Plug-In . SVG Version: 6.00 Build 0)  -->
<!DOCTYPE svg PUBLIC "-//W3C//DTD SVG 1.1//EN" "http://www.w3.org/Graphics/SVG/1.1/DTD/svg11.dtd">
<svg version="1.1" id="Слой_1" xmlns="http://www.w3.org/2000/svg" xmlns:xlink="http://www.w3.org/1999/xlink" x="0px" y="0px"
	 width="80px" height="28px" viewBox="0 0 80 28" enable-background="new 0 0 80 28" xml:space="preserve">
<g>
	<defs>
		<rect id="SVGID_1_" x="-440" y="-2603" width="1440" height="3000"/>
	</defs>
	<clipPath id="SVGID_2_">
		<use xlink:href="#SVGID_1_"  overflow="visible"/>
	</clipPath>
	<g opacity="0.2" clip-path="url(#SVGID_2_)" enable-background="new    ">
		<g>
			<defs>
				<rect id="SVGID_3_" width="80" height="28"/>
			</defs>
			<clipPath id="SVGID_4_">
				<use xlink:href="#SVGID_3_"  overflow="visible"/>
			</clipPath>
			<g clip-path="url(#SVGID_4_)">
				<defs>
					<path id="SVGID_5_" d="M16.6064453,4.8745117l1.9541016-2.0004883
						C15.2436523,0.1166992,9.5541992-0.2451172,5.784668,1.6689453C2.5058594,3.3334961,0.121582,6.6396484,0.0048828,10.3320313
						c-0.1230469,3.8867188,2.1264648,6.9609375,4.409668,8.5068359c3.7675781,2.5507813,10.300293,1.9833984,14.2358398-0.0117188
						l-0.0009766-0.3701172h0.0004883v-4.0732422l0.9160156-1.0771484h-5.7329102l-2.1230469,1.2006836l4.1235352-0.1235352
						v3.5898438c0,0.5097656,0.0063477,0.5917969-0.8295898,0.8623047
						c-1.1762695,0.3105469-2.5043945,0.3720703-3.7182617,0.2695313c-4.1171875-0.3447266-7.2558594-3.6113281-7.9995117-7.6865234
						C2.5810547,7.5527344,4.3964844,3.8955078,7.4663086,2.3867188c1.4990234-0.7368164,3.2978516-1.0834961,5.2475586-0.456543
						c1.222168,0.3925781,2.3320313,1.1005859,3.2993164,2.0756836l-0.6738281,1.2304688L16.6064453,4.8745117z
						 M31.5170898,13.3291016c0.2490234,2.4619141-0.5830078,4.7490234-2.8095703,5.2607422
						c-2.277832,0.5224609-4.6928711-1.3525391-5.2958984-4.5395508C22.7495117,10.5551758,23.84375,8.253418,25.9941406,7.6875
						C28.5415039,7.0170898,31.137207,9.5693359,31.5170898,13.3291016z M27.4091797,6.6704102
						c4.347168,0,6.6147461,2.8681641,6.8178711,6.2280273c0.2016602,3.3476563-2.5800781,6.3427734-5.9838867,6.7011719
						c-4.0927734,0.4306641-7.6669922-2.3671875-7.6669922-6.4482422
						C20.5761719,9.581543,23.6459961,6.6704102,27.4091797,6.6704102z M46.1953125,13.3291016
						c0.2470703,2.4619141-0.5761719,4.7490234-2.7763672,5.2607422c-2.2519531,0.5224609-4.6381836-1.3525391-5.234375-4.5395508
						c-0.6538086-3.4951172,0.4272461-5.796875,2.5517578-6.362793
						C43.2539063,7.0170898,45.8203125,9.5693359,46.1953125,13.3291016z M42.1357422,6.6704102
						c4.2958984,0,6.5371094,2.8681641,6.7382813,6.2280273c0.1992188,3.3476563-2.5498047,6.3427734-5.9140625,6.7011719
						c-4.0449219,0.4306641-7.5776367-2.3671875-7.5776367-6.4482422
						C35.3823242,9.581543,38.4160156,6.6704102,42.1357422,6.6704102z M58.4697266,11.8061523
						c0.2851563,1.737793-0.1552734,3.3852539-1.71875,3.8198242c-1.6015625,0.4443359-3.3720703-0.8061523-3.9423828-3.0458984
						c-0.6240234-2.4560547,0.0214844-4.015625,1.5302734-4.4863281C56.125,7.5356445,58.0341797,9.1538086,58.4697266,11.8061523z
						 M62.4990234,7.0332031l-1.6005859,1.0410156h-1.8222656c0.7695313,0.5395508,1.359375,1.3178711,1.6845703,2.184082
						c0.3457031,0.9233398,0.3945313,1.9462891,0.0429688,2.8881836c-0.3320313,0.8881836-1.0048828,1.6533203-1.9941406,2.234375
						c-0.5615234,0.3310547-0.8457031,0.7490234-0.8769531,1.1513672c-0.0908203,1.1728516,1.3359375,2.0253906,2.1601563,2.6455078
						c1.8056641,1.3564453,2.5107422,3.5839844,1.3164063,5.734375c-1.1416016,2.0537109-3.859375,2.9707031-6.7460938,2.9804688
						c-3.5849609-0.015625-5.8466797-1.6660156-5.9658203-3.9111328c-0.1542969-2.9023438,2.8115234-4.2832031,5.4902344-4.5986328
						c0.75-0.0878906,1.4208984-0.0742188,2.0507813-0.0283203c-0.9482422-0.6269531-1.3027344-1.9042969-0.8183594-2.7578125
						c0.1259766-0.2226563,0.0458984-0.1455078-0.1933594-0.109375c-2.1914063,0.3320313-4.4482422-1.1035156-4.9765625-3.2749023
						c-0.2685547-1.1015625-0.1015625-2.2524414,0.3164063-3.1538086c0.9072266-1.9570313,2.9248047-3.0444336,5.1640625-3.0444336
						C58.0595703,7.0141602,60.2158203,7.0151367,62.4990234,7.0332031z M57.125,20.1015625
						c0.2695313,0.1982422,0.5498047,0.3916016,0.8388672,0.5742188c1.5732422,1.0009766,2.0742188,2.2236328,1.9462891,3.3515625
						c-0.1542969,1.3613281-1.4541016,2.4335938-3.6806641,2.5693359c-2.3779297,0.1455078-5.578125-0.7998047-4.9853516-3.9394531
						c0.3154297-1.6728516,2.5263672-2.5371094,4.3535156-2.5976563C56.1035156,20.0429688,56.6191406,20.0849609,57.125,20.1015625
						z M63.8925781,0.1079102h3.7441406c-0.5214844,0.3388672-0.6962891,0.4790039-0.9199219,0.8349609
						c-0.1611328,0.2553711-0.2021484,0.7397461-0.2314453,1.1762695
						c-0.2177734,5.0200195-0.0839844,10.0776367-0.1162109,15.0986328c0.0205078,1.3681641,0.5556641,1.2070313,2.328125,1.1552734
						c-0.2675781,0.2275391-0.7001953,0.6767578-1.0361328,0.8701172c-1.5986328,0-3.125-0.0351563-4.7236328-0.0351563
						c0.6025391-0.6240234,0.9111328-1.0263672,0.8701172-2.5878906c0.03125-5.2460938-0.1748047-10.28125,0.1435547-15.3334961
						c-0.75,0.0219727-1.4306641,0.0107422-2.1806641,0.0322266C62.4785156,0.9526367,63.1484375,0.4365234,63.8925781,0.1079102z
						 M79.3320313,10.4291992c0.4179688-0.1738281,0.4511719-0.2050781,0.296875-0.6484375
						c-0.8847656-2.5351563-4.2148438-3.9042969-7.0498047-2.7167969c-2.2373047,0.9370117-3.8574219,3.3120117-3.8574219,5.9677734
						c0,3.5795898,2.5732422,6.762207,6.0683594,6.762207c1.6025391,0,2.7412109-0.2226563,3.7558594-0.8681641
						c0.2167969-0.203125,1.4423828-1.1875,1.4541016-1.3984375c0.0019531-0.0488281-0.1728516,0.1044922-0.4394531,0.2519531
						c-0.7890625,0.4169922-1.9736328,0.5771484-2.9013672,0.5947266c-1.8789063,0.0341797-3.3789063-1.2509766-4.3574219-2.7773438
						c-0.6298828-0.9819336-1.0371094-2.1049805-1.1386719-3.3105469c-0.1552734-1.8535156,0.2958984-3.9848633,2.3808594-4.5083008
						c1.3867188-0.3481445,2.7001953,0.4321289,3.2109375,1.7739258c0.2314453,0.6083984,0.0917969,0.925293-0.46875,1.1572266
						L71.2714844,12.8125l1.7089844,0.1098633C75.0175781,12.0742188,77.2958984,11.277832,79.3320313,10.4291992z"/>
				</defs>
				<clipPath id="SVGID_6_">
					<use xlink:href="#SVGID_5_"  overflow="visible"/>
				</clipPath>
				<g clip-path="url(#SVGID_6_)">
					<defs>
						<rect id="SVGID_7_" width="80" height="28"/>
					</defs>
					<clipPath id="SVGID_8_">
						<use xlink:href="#SVGID_7_"  overflow="visible"/>
					</clipPath>
					<rect x="-5" y="-4.8920898" clip-path="url(#SVGID_8_)" width="90" height="37.784668"/>
				</g>
			</g>
		</g>
	</g>
</g>
</svg>
