<?xml version="1.0" encoding="UTF-8" standalone="no"?>
<!-- Created with Inkscape (http://www.inkscape.org/) -->

<svg
   xmlns:dc="http://purl.org/dc/elements/1.1/"
   xmlns:cc="http://creativecommons.org/ns#"
   xmlns:rdf="http://www.w3.org/1999/02/22-rdf-syntax-ns#"
   xmlns:svg="http://www.w3.org/2000/svg"
   xmlns="http://www.w3.org/2000/svg"
   xmlns:sodipodi="http://sodipodi.sourceforge.net/DTD/sodipodi-0.dtd"
   xmlns:inkscape="http://www.inkscape.org/namespaces/inkscape"
   width="66"
   height="66"
   viewBox="0 0 17.4625 17.4625"
   version="1.1"
   id="svg8"
   inkscape:version="0.92.1 r15371"
   sodipodi:docname="hart.svg">
  <defs
     id="defs2" />
  <sodipodi:namedview
     id="base"
     borderopacity="1.0"
     inkscape:pageopacity="0.0"
     inkscape:pageshadow="2"
     inkscape:zoom="1.979899"
     inkscape:cx="121.13076"
     inkscape:cy="29.537415"
     inkscape:document-units="mm"
     inkscape:current-layer="layer1"
     showgrid="false"
     units="px"
     inkscape:window-width="1280"
     inkscape:window-height="972"
     inkscape:window-x="-8"
     inkscape:window-y="-8"
     inkscape:window-maximized="1" />
  <metadata
     id="metadata5">
    <rdf:RDF>
      <cc:Work
         rdf:about="">
        <dc:format>image/svg+xml</dc:format>
        <dc:type
           rdf:resource="http://purl.org/dc/dcmitype/StillImage" />
        <dc:title></dc:title>
      </cc:Work>
    </rdf:RDF>
  </metadata>
  <g
     inkscape:label="Layer 1"
     inkscape:groupmode="layer"
     id="layer1"
     transform="translate(0,-279.53748)">
    <path
       style="stroke-width:0.21809246"
       d="m 6.5668574,296.91251 c -2.4621688,-0.62098 -4.7659616,-2.55391 -5.90511737,-4.95453 -0.63925463,-1.34715 -0.69700051,-1.64937 -0.69700051,-3.64789 0,-1.99849 0.05775,-2.30072 0.69700051,-3.64787 0.90211527,-1.90108 2.47567897,-3.47193 4.38005697,-4.37248 1.3494774,-0.63814 1.6522235,-0.6958 3.6541924,-0.6958 2.0019686,0 2.3047156,0.0577 3.6541926,0.6958 1.904378,0.90055 3.477941,2.4714 4.380057,4.37248 0.639255,1.34715 0.697,1.64938 0.697,3.64787 0,1.99852 -0.05774,2.30074 -0.697,3.64789 -1.455449,3.06716 -4.242981,4.94408 -7.5519455,5.08493 -0.9855953,0.0419 -2.1607419,-0.0167 -2.6114361,-0.1304 z m 3.5917866,-1.32948 c 1.576599,-0.33359 2.659309,-0.91691 3.78184,-2.0375 2.945589,-2.9405 2.945589,-7.53037 0,-10.47086 -2.945589,-2.94049 -7.5434,-2.94049 -10.4889891,0 -2.94431537,2.93923 -2.94550837,7.53044 -0.00273,10.46814 1.1056214,1.10371 1.9974142,1.60774 3.5009644,1.97867 1.4143363,0.3489 1.8145454,0.35658 3.2089057,0.0615 z m -3.0147147,-4.38571 c -1.3945891,-0.93551 -2.0495806,-1.93307 -2.0495806,-3.12153 0,-0.74789 0.1138789,-1.02195 0.5751405,-1.38415 0.692694,-0.54393 1.8530186,-0.58674 2.6032109,-0.096 0.5027286,0.32882 0.5732191,0.32882 0.9372025,0 0.6194327,-0.55961 1.9153664,-0.4562 2.5784634,0.20575 1.110223,1.1083 0.334009,3.22635 -1.640488,4.47637 -1.2651564,0.80095 -1.7077978,0.78911 -3.0039487,-0.0804 z"
       id="path38"
       inkscape:connector-curvature="0" />
  </g>
</svg>
