<?xml version="1.0" encoding="utf-8"?>
<!-- Generator: Adobe Illustrator 16.0.0, SVG Export Plug-In . SVG Version: 6.00 Build 0)  -->
<!DOCTYPE svg PUBLIC "-//W3C//DTD SVG 1.1//EN" "http://www.w3.org/Graphics/SVG/1.1/DTD/svg11.dtd">
<svg version="1.1" id="Слой_1" xmlns="http://www.w3.org/2000/svg" xmlns:xlink="http://www.w3.org/1999/xlink" x="0px" y="0px"
	 width="80px" height="24px" viewBox="0 0 80 24" enable-background="new 0 0 80 24" xml:space="preserve">
<g>
	<defs>
		<rect id="SVGID_1_" x="-920" y="-2605" width="1440" height="3000"/>
	</defs>
	<clipPath id="SVGID_2_">
		<use xlink:href="#SVGID_1_"  overflow="visible"/>
	</clipPath>
	<g opacity="0.2" clip-path="url(#SVGID_2_)" enable-background="new    ">
		<g>
			<defs>
				<rect id="SVGID_3_" width="80" height="24"/>
			</defs>
			<clipPath id="SVGID_4_">
				<use xlink:href="#SVGID_3_"  overflow="visible"/>
			</clipPath>
			<g clip-path="url(#SVGID_4_)">
				<defs>
					<path id="SVGID_5_" d="M10.0200195,15.4648438l-1.7148438-4.9350586l4.940918-1.7128906l1.715332,4.934082
						L10.0200195,15.4648438z M23.1625977,12.8828125c-0.3383789-0.9736328-1.402832-1.4882813-2.3779297-1.1503906
						l-2.293457,0.7949219l-1.715332-4.934082l2.2939453-0.7954102c0.9741211-0.3378906,1.4902344-1.4008789,1.1518555-2.3740234
						c-0.3383789-0.9736328-1.402832-1.4887695-2.3774414-1.1508789L15.550293,4.0683594l-0.7963867-2.2910156
						c-0.3388672-0.9731445-1.402832-1.4882813-2.3774414-1.1503906c-0.9750977,0.3378906-1.4907227,1.4008789-1.1523438,2.3740234
						l0.7963867,2.2915039l-4.940918,1.7128906l-0.796875-2.2910156C5.9448242,3.7412109,4.8803711,3.2260742,3.9052734,3.5639648
						C2.9306641,3.9018555,2.4150391,4.9648438,2.753418,5.9379883l0.796875,2.2910156L1.2558594,9.0244141
						C0.28125,9.3623047-0.234375,10.425293,0.1040039,11.3984375c0.3383789,0.9736328,1.4023438,1.4887695,2.3774414,1.1508789
						l2.2939453-0.7954102l1.715332,4.9345703l-2.2939453,0.7949219c-0.9746094,0.3378906-1.4907227,1.4013672-1.1518555,2.3740234
						c0.3383789,0.9736328,1.4023438,1.4892578,2.3774414,1.1513672l2.2939453-0.7958984l0.7963867,2.2910156
						c0.3383789,0.9736328,1.402832,1.4882813,2.3774414,1.1503906c0.9750977-0.3378906,1.4902344-1.4003906,1.1518555-2.3740234
						l-0.7963867-2.2910156l4.9414063-1.7128906l0.7963867,2.2900391c0.3383789,0.9736328,1.402832,1.4892578,2.3774414,1.1513672
						c0.9746094-0.3388672,1.4902344-1.4013672,1.1518555-2.375l-0.7958984-2.2900391l2.2939453-0.7958984
						C22.9848633,14.9189453,23.5009766,13.8564453,23.1625977,12.8828125z M39.7749023,18.7783203
						c0.1914063,0.0068359,1.6430664,0.0048828,2.2866211,0.0039063c0.2167969,0.0039063,0.3291016-0.1591797,0.3359375-0.3037109
						c0.1367188-2.7529297,0.078125-15.8574219-0.0078125-17.9267578c-0.0068359-0.1791992-0.0839844-0.2460938-0.2060547-0.262207
						C41.6308594,0.215332,40.0625,0.2329102,39.5600586,0.3642578c-0.0991211,0.0258789-0.15625,0.1000977-0.1601563,0.1962891
						c-0.1230469,5.3334961-0.0400391,17.6308594-0.0136719,17.8642578
						C39.4121094,18.6572266,39.5336914,18.7705078,39.7749023,18.7783203z M76.7773438,18.7910156
						c0.203125-0.0146484,2.3789063-0.3144531,3.046875-0.4677734c0.1660156-0.0371094,0.2246094-0.1767578,0.1318359-0.3144531
						c-0.3730469-0.5585938-1.3535156-2.1445313-2.3798828-3.5644531c-0.9443359-1.3046875-1.9404297-2.453125-2.2626953-2.8945313
						c-0.078125-0.1074219-0.0732422-0.2133789,0.0117188-0.2963867C75.9375,10.6547852,78.5,8.1469727,79.4628906,7.1108398
						c0.3730469-0.402832,0.1494141-0.5761719-0.1679688-0.6704102c-0.6113281-0.1821289-1.6015625-0.4091797-2.1640625-0.527832
						c-0.2373047-0.0498047-0.5224609-0.0322266-0.7304688,0.1806641c-0.9628906,0.8964844-3.9023438,3.8427734-4.7792969,4.7231445
						c-0.1582031,0.1591797-0.25,0.1235352-0.2509766-0.1035156c-0.0068359-1.6977539-0.0410156-8.9663086-0.1015625-10.1621094
						c-0.0048828-0.1582031-0.1943359-0.277832-0.3017578-0.2832031c-0.5517578-0.0288086-1.9453125-0.0371094-2.4951172-0.0048828
						c-0.1533203,0.0170898-0.3007813,0.1738281-0.3144531,0.3061523
						c-0.1259766,1.9116211,0.0537109,15.9448242,0.1289063,17.9086914
						c0.0058594,0.1416016,0.1113281,0.2519531,0.2460938,0.2597656c0.5488281,0.03125,1.9033203,0.0292969,2.5361328,0.0175781
						c0.3115234,0,0.3496094-0.21875,0.3496094-0.21875l0.046875-3.765625c0,0,0.0322266-0.1669922,0.0839844-0.2226563
						c0.2236328-0.2392578,0.8408203-0.9003906,1.1035156-1.1552734c0.0634766-0.0615234,0.1630859-0.0576172,0.2275391,0.0292969
						c0.3125,0.4208984,1.2041016,1.7900391,2.0302734,3.0136719c0.7597656,1.1230469,1.46875,2.1201172,1.5175781,2.1904297
						C76.5429688,18.7880859,76.6767578,18.7949219,76.7773438,18.7910156z M56.0429688,12.3867188
						c-0.0195313-3.5307617,2.4433594-6.5097656,6.4443359-6.5361328c2.4960938-0.0161133,4.3095703,1.1137695,4.6298828,1.6469727
						c0.0654297,0.125,0.03125,0.2294922-0.0136719,0.3554688c-0.2109375,0.4453125-0.7451172,1.3066406-1.1259766,1.7944336
						c-0.1611328,0.2075195-0.3378906,0.0297852-0.5419922-0.1064453c-0.5673828-0.3769531-1.6445313-0.8383789-2.7050781-0.8383789
						c-1.9238281,0-3.3574219,1.3178711-3.3408203,3.7416992c0.0146484,2.3261719,1.3876953,3.6044922,3.3476563,3.6513672
						c1.0244141,0.0253906,2.0175781-0.5625,2.5507813-1.0449219c0.1689453-0.1455078,0.3417969-0.0722656,0.5332031,0.0761719
						c0.3769531,0.3847656,0.9160156,0.9775391,1.2148438,1.3847656c0.1962891,0.2275391,0.0498047,0.4492188-0.0205078,0.5380859
						c-0.8115234,1.0253906-2.3789063,1.8886719-4.453125,1.9003906
						C58.21875,18.9804688,56.0634766,15.9306641,56.0429688,12.3867188z M44.4746094,7.6738281
						c0.8212891-0.7333984,2.4482422-1.875,5.0419922-1.8149414c3.421875,0.0712891,5.2304688,1.6733398,5.3984375,5.5063477
						c0.0693359,1.5810547-0.0458984,5.9892578-0.0732422,7.0878906c-0.0039063,0.1582031-0.0566406,0.2666016-0.2705078,0.2714844
						c-0.5625,0.0224609-1.8652344,0.0136719-2.4638672,0.0058594c-0.3007813-0.0146484-0.3369141-0.1650391-0.3398438-0.3212891
						c-0.0029297-0.1025391-0.0117188-0.40625-0.0185547-0.6533203c-0.0029297-0.1318359-0.1259766-0.1279297-0.1582031-0.09375
						c-0.8027344,0.8554688-2.1181641,1.2685547-3.515625,1.2685547c-2.125,0-4.2431641-1.2480469-4.2373047-3.7207031
						c0.0068359-2.53125,1.8046875-3.7807617,3.7792969-4.074707c1.2646484-0.1884766,2.6904297-0.0209961,3.7695313,0.4077148
						c0.0693359,0.0268555,0.2099609-0.0126953,0.2109375-0.1103516c0.0048828-0.3227539-0.0107422-0.9375-0.0732422-1.2290039
						c-0.1582031-0.7426758-0.7783203-1.3398438-2.0820313-1.5009766c-0.2685547-0.0327148-0.5380859-0.0439453-0.8085938-0.0224609
						c-1.0361328,0.081543-2.2822266,0.8881836-2.7988281,1.1899414c-0.1210938,0.0708008-0.3115234,0.019043-0.3730469-0.0600586
						c-0.3007813-0.3881836-1.0585938-1.5253906-1.1171875-1.7070313
						C44.2851563,7.9213867,44.3691406,7.769043,44.4746094,7.6738281z M50.3144531,13.1933594
						c-1.7548828,0.0224609-3.3642578,0.5009766-3.4111328,1.8710938c0,1.0869141,0.8828125,1.6201172,2.1220703,1.5507813
						c1.1884766-0.1142578,2.0957031-0.6289063,2.4951172-1.3115234c0.1474609-0.2539063,0.1699219-1.2011719,0.1611328-1.6064453
						c-0.0019531-0.0859375-0.1728516-0.2490234-0.2480469-0.2802734
						C51.0605469,13.2597656,50.7851563,13.2119141,50.3144531,13.1933594z M27.7041016,9.7617188
						c0-2.409668,1.7592773-4.0922852,4.956543-4.0922852c1.9501953,0,3.546875,0.6225586,4.4116211,1.2314453
						c0.1235352,0.0874023,0.3447266,0.2983398,0.2119141,0.6904297c-0.1694336,0.4228516-0.480957,1.059082-0.7041016,1.472168
						c-0.1298828,0.2402344-0.4614258,0.2089844-0.6318359,0.1225586C35.3320313,8.8745117,34.3217773,8.3466797,33.394043,8.25
						c-0.2280273-0.0239258-0.4672852-0.0371094-0.7075195-0.0307617c-0.8178711,0.0185547-1.5004883,0.3017578-1.7412109,0.9243164
						c-0.0483398,0.1240234-0.074707,0.2480469-0.0776367,0.3701172c-0.0224609,0.8208008,1.1210938,1.1176758,2.5068359,1.3554688
						c2.5761719,0.440918,4.5249023,1.1948242,4.5249023,3.8427734c0,2.2480469-1.7895508,4.2802734-5.2954102,4.2177734
						c-2.3110352-0.046875-3.9511719-0.8261719-4.8300781-1.5830078c-0.0297852-0.0253906-0.3637695-0.3662109-0.1850586-0.7753906
						c0.2055664-0.5263672,0.5517578-1.1298828,0.8237305-1.4501953c0.1508789-0.2060547,0.5493164-0.2392578,0.7568359-0.1103516
						c0.7241211,0.4492188,1.9165039,1.1699219,3.2905273,1.2177734c0.1083984,0.0039063,0.2158203,0.0048828,0.3212891,0.0019531
						c1.2358398-0.0302734,1.9838867-0.4980469,1.9677734-1.2861328c-0.0131836-0.6953125-0.9931641-1.1005859-2.5537109-1.3945313
						C29.706543,13.0810547,27.7041016,12.262207,27.7041016,9.7617188z"/>
				</defs>
				<clipPath id="SVGID_6_">
					<use xlink:href="#SVGID_5_"  overflow="visible"/>
				</clipPath>
				<g clip-path="url(#SVGID_6_)">
					<defs>
						<rect id="SVGID_7_" width="80" height="24"/>
					</defs>
					<clipPath id="SVGID_8_">
						<use xlink:href="#SVGID_7_"  overflow="visible"/>
					</clipPath>
					<rect x="-5" y="-4.7583008" clip-path="url(#SVGID_8_)" width="90" height="33.5161133"/>
				</g>
			</g>
		</g>
	</g>
</g>
</svg>
