<?xml version="1.0" encoding="utf-8"?>
<!-- Generator: Adobe Illustrator 16.0.0, SVG Export Plug-In . SVG Version: 6.00 Build 0)  -->
<!DOCTYPE svg PUBLIC "-//W3C//DTD SVG 1.1//EN" "http://www.w3.org/Graphics/SVG/1.1/DTD/svg11.dtd">
<svg version="1.1" id="Слой_1" xmlns="http://www.w3.org/2000/svg" xmlns:xlink="http://www.w3.org/1999/xlink" x="0px" y="0px"
	 width="80px" height="24px" viewBox="0 0 80 24" enable-background="new 0 0 80 24" xml:space="preserve">
<g>
	<defs>
		<rect id="SVGID_1_" x="-760" y="-2605" width="1440" height="3000"/>
	</defs>
	<clipPath id="SVGID_2_">
		<use xlink:href="#SVGID_1_"  overflow="visible"/>
	</clipPath>
	<g opacity="0.2" clip-path="url(#SVGID_2_)" enable-background="new    ">
		<g>
			<defs>
				<rect id="SVGID_3_" width="80" height="24"/>
			</defs>
			<clipPath id="SVGID_4_">
				<use xlink:href="#SVGID_3_"  overflow="visible"/>
			</clipPath>
			<g clip-path="url(#SVGID_4_)">
				<defs>
					<path id="SVGID_5_" d="M42.9765625,16.0820313c-1.2490234,0-2.2617188-1.1298828-2.2617188-2.5234375
						c0-1.3930664,1.0126953-2.5224609,2.2617188-2.5224609c1.25,0,2.2626953,1.1293945,2.2626953,2.5224609
						C45.2392578,14.9521484,44.2265625,16.0820313,42.9765625,16.0820313z M43.5947266,9.1108398
						c-1.4101563,0-2.2705078,0.5043945-2.8554688,1.300293V9.2700195h-2.190918v11.0795898h2.2338867v-3.6191406
						c0.5693359,0.6845703,1.3603516,1.2734375,2.6416016,1.2734375c2.0087891,0,4.0302734-1.5595703,4.0302734-4.4091797V13.5625
						C47.4541016,10.7133789,45.5166016,9.1108398,43.5947266,9.1108398z M52.6435547,16.1396484
						c-1.3222656,0-2.3945313-1.1416016-2.3945313-2.5488281c0-1.4082031,1.0722656-2.5493164,2.3945313-2.5493164
						s2.3945313,1.1411133,2.3945313,2.5493164C55.0380859,14.9980469,53.9658203,16.1396484,52.6435547,16.1396484z
						 M52.6806641,9.1088867c-2.6152344,0-4.5986328,2-4.5986328,4.4633789v0.0322266
						c0,2.4638672,1.9677734,4.4316406,4.5673828,4.4316406c2.6152344,0,4.5566406-2,4.5566406-4.4638672v-0.03125
						C57.2060547,11.0766602,55.2802734,9.1088867,52.6806641,9.1088867z M66.2011719,6.890625
						c0,0.7543945-0.6162109,1.3657227-1.3759766,1.3657227s-1.375-0.6113281-1.375-1.3657227s0.6152344-1.3657227,1.375-1.3657227
						S66.2011719,6.1362305,66.2011719,6.890625z M70.0634766,9.296875V8.875c0-0.6420898,0.4951172-0.9306641,1.0634766-0.9306641
						c0.421875,0,0.7626953,0.0800781,1.1191406,0.2084961V6.2158203c-0.4541016-0.1445313-0.9736328-0.2407227-1.7519531-0.2407227
						c-0.8769531,0-1.4541016,0.2246094-1.9082031,0.6738281c-0.4550781,0.449707-0.7363281,1.1396484-0.7363281,2.0864258V9.28125
						h-1.0722656v1.9189453h1.0224609v6.6025391h2.2841797v-6.6005859h1.7802734l2.6767578,6.5097656
						c-0.2246094,0.5224609-0.5996094,0.7841797-1.0097656,0.7841797c-0.3154297,0-0.8222656-0.1806641-1.1376953-0.3710938
						l-0.8027344,1.6914063c0.6152344,0.3652344,1.4736328,0.5849609,2.3417969,0.5849609
						c1.5361328,0,2.2695313-1.3066406,2.53125-1.9775391L80,9.3154297L77.7177734,9.3125l-2.0644531,5.8095703
						l-2.2646484-5.8276367h-1.1621094L70.0634766,9.296875z M63.7285156,9.3125h2.1943359v8.5322266h-2.1943359V9.3125z
						 M58.4101563,15.3935547v-4.1787109h-1.0683594V9.2470703h1.0683594V6.996582h2.2226563v2.2504883h2.2333984v1.9677734
						h-2.2333984v3.8603516c0,0.7099609,0.4453125,0.8740234,0.9902344,0.8740234
						c0.4482422,0,0.8583984-0.1484375,1.2109375-0.3417969v1.8818359
						c-0.5126953,0.3056641-1.1064453,0.4990234-1.9238281,0.4990234
						C59.4199219,17.9882813,58.4101563,17.3916016,58.4101563,15.3935547z M28.9638672,16.1982422l1.453125-1.7578125
						c1.0058594,0.8388672,2.0595703,1.3710938,3.3369141,1.3710938c1.0058594,0,1.6123047-0.4033203,1.6123047-1.0644531
						v-0.0322266c0-0.6289063-0.3833008-0.9511719-2.2509766-1.4355469
						c-2.2509766-0.5800781-3.7041016-1.2089844-3.7041016-3.4501953V9.796875c0-2.0483398,1.628418-3.402832,3.9116211-3.402832
						c1.628418,0,3.0175781,0.5161133,4.1508789,1.4355469L36.1962891,9.699707
						c-0.9897461-0.6933594-1.9633789-1.1123047-2.9052734-1.1123047c-0.9423828,0-1.4370117,0.4350586-1.4370117,0.9833984
						v0.0322266c0,0.7416992,0.4790039,0.9838867,2.4106445,1.4833984c2.2670898,0.5966797,3.5444336,1.4194336,3.5444336,3.3862305
						v0.0322266c0,2.2421875-1.6923828,3.4990234-4.1030273,3.4990234
						C32.0136719,18.0039063,30.3051758,17.4072266,28.9638672,16.1982422z M18.6235352,10.5976563
						c-0.5048828-0.2836914-1.0214844-0.5405273-1.5595703-0.7548828c-1.0693359-0.4257813-2.1777344-0.7119141-3.3105469-0.9106445
						c-0.7880859-0.1381836-1.5825195-0.2294922-2.3813477-0.2768555c-0.8305664-0.0498047-1.6616211-0.0556641-2.4931641-0.0126953
						c-0.953125,0.0488281-1.8984375,0.152832-2.831543,0.3530273C5.703125,9.0693359,5.3632813,9.1625977,5.0224609,9.2529297
						c-0.2084961,0.0551758-0.4145508,0.0625-0.6225586,0.0019531C3.9448242,9.1225586,3.6313477,8.7172852,3.6176758,8.2431641
						C3.6044922,7.7827148,3.890625,7.3544922,4.340332,7.2070313c0.3291016-0.1074219,0.6669922-0.1923828,1.0053711-0.2700195
						C6.1826172,6.7451172,7.03125,6.6264648,7.8862305,6.5488281c0.9082031-0.0825195,1.8183594-0.1088867,2.7285156-0.0830078
						c2.2431641,0.0634766,4.4428711,0.3896484,6.5712891,1.1191406c0.8676758,0.2973633,1.703125,0.6669922,2.4970703,1.1269531
						c0.2832031,0.1640625,0.4731445,0.3950195,0.5454102,0.7148438C20.2456055,9.5024414,20.25,9.581543,20.2597656,9.6591797
						C20.2563477,10.5004883,19.3676758,11.0161133,18.6235352,10.5976563z M18.4853516,13.8857422
						c-0.2587891,0.421875-0.7963867,0.5537109-1.2431641,0.3027344c-0.2524414-0.140625-0.5014648-0.2880859-0.7592773-0.4189453
						c-1.1811523-0.5976563-2.434082-0.9853516-3.7338867-1.2299805c-1.0009766-0.1879883-2.0112305-0.2797852-3.0849609-0.2841797
						c-1.3369141,0.0053711-2.706543,0.1699219-4.0444336,0.5644531c-0.2177734,0.0639648-0.4365234,0.0683594-0.6499023-0.0175781
						c-0.3476563-0.1396484-0.5737305-0.4858398-0.5615234-0.8515625c0.0126953-0.3818359,0.2470703-0.7143555,0.6176758-0.8266602
						c0.3769531-0.1142578,0.7597656-0.2138672,1.1450195-0.2983398c0.9477539-0.2089844,1.9082031-0.3198242,2.8789063-0.3564453
						c2.0878906-0.0786133,4.1279297,0.1894531,6.1176758,0.8232422c1.0063477,0.3198242,1.96875,0.7392578,2.8779297,1.2763672
						c0.0454102,0.0268555,0.090332,0.0541992,0.1352539,0.0810547
						C18.6547852,12.9379883,18.7114258,13.5166016,18.4853516,13.8857422z M17.0532227,17.0488281
						c-0.184082,0.3066406-0.574707,0.4306641-0.9086914,0.2841797c-0.0673828-0.0292969-0.1298828-0.0683594-0.1933594-0.1064453
						c-1.2387695-0.7285156-2.5756836-1.1806641-3.996582-1.3964844c-0.8720703-0.1328125-1.7485352-0.1787109-2.6289063-0.1445313
						c-1.1391602,0.0449219-2.2636719,0.2011719-3.3764648,0.4462891c-0.1123047,0.0244141-0.2280273,0.046875-0.3422852,0.0478516
						c-0.3442383,0.0039063-0.6352539-0.2382813-0.6958008-0.5673828C4.847168,15.2636719,5.0209961,14.9375,5.3427734,14.8085938
						c0.0678711-0.0263672,0.1401367-0.0439453,0.2119141-0.0605469c0.9101563-0.2021484,1.8291016-0.3564453,2.7583008-0.4335938
						c0.519043-0.0439453,1.0400391-0.0615234,1.5600586-0.0898438c1.5390625,0.015625,3.0449219,0.2226563,4.5058594,0.7119141
						c0.8061523,0.2695313,1.5756836,0.6191406,2.3066406,1.0517578c0.0629883,0.0371094,0.1274414,0.0742188,0.1860352,0.1181641
						C17.1665039,16.3291016,17.2431641,16.7314453,17.0532227,17.0488281z M11.7055664,0.3759766
						C5.2407227,0.3759766,0,5.5800781,0,12s5.2407227,11.6240234,11.7055664,11.6240234S23.4111328,18.4199219,23.4111328,12
						S18.1704102,0.3759766,11.7055664,0.3759766z"/>
				</defs>
				<clipPath id="SVGID_6_">
					<use xlink:href="#SVGID_5_"  overflow="visible"/>
				</clipPath>
				<g clip-path="url(#SVGID_6_)">
					<defs>
						<rect id="SVGID_7_" width="80" height="24"/>
					</defs>
					<clipPath id="SVGID_8_">
						<use xlink:href="#SVGID_7_"  overflow="visible"/>
					</clipPath>
					<rect x="-5" y="-4.6240234" clip-path="url(#SVGID_8_)" width="90" height="33.2480469"/>
				</g>
			</g>
		</g>
	</g>
</g>
</svg>
